<?xml version="1.0" encoding="UTF-8" standalone="no"?>
<svg
   viewBox="0 0 600 600"
   version="1.1"
   id="svg1111"
   sodipodi:docname="google.svg"
   inkscape:version="1.3 (1:1.3+202307231459+0e150ed6c4)"
   width="600"
   height="600"
   xmlns:inkscape="http://www.inkscape.org/namespaces/inkscape"
   xmlns:sodipodi="http://sodipodi.sourceforge.net/DTD/sodipodi-0.dtd"
   xmlns="http://www.w3.org/2000/svg"
   xmlns:svg="http://www.w3.org/2000/svg">
  <defs
     id="defs1115" />
  <sodipodi:namedview
     id="namedview1113"
     pagecolor="#ffffff"
     bordercolor="#000000"
     borderopacity="0.25"
     inkscape:showpageshadow="2"
     inkscape:pageopacity="0.0"
     inkscape:pagecheckerboard="0"
     inkscape:deskcolor="#d1d1d1"
     showgrid="false"
     inkscape:zoom="1.0648034"
     inkscape:cx="244.17653"
     inkscape:cy="258.26364"
     inkscape:window-width="1850"
     inkscape:window-height="1016"
     inkscape:window-x="0"
     inkscape:window-y="0"
     inkscape:window-maximized="1"
     inkscape:current-layer="svg1111" />
  <rect
     style="fill:#fed4cd;fill-opacity:1"
     id="rect1"
     width="600"
     height="600"
     x="0"
     y="0"
     rx="60"
     ry="60" />
  <!--! Font Awesome Free 6.2.0 by @fontawesome - https://fontawesome.com License - https://fontawesome.com/license/free (Icons: CC BY 4.0, Fonts: SIL OFL 1.1, Code: MIT License) Copyright 2022 Fonticons, Inc. -->
  <path
     d="m 489.5205,304.505 c 0,109.90635 -75.26449,188.1224 -186.41361,188.1224 -106.56644,0 -192.62739,-86.06095 -192.62739,-192.6274 0,-106.56645 86.06095,-192.6274 192.62739,-192.6274 51.88512,0 95.53698,19.02973 129.1691,50.40935 L 379.84716,208.1913 C 311.26249,142.01447 183.72451,191.72476 183.72451,300 c 0,67.18657 53.67159,121.63488 119.38238,121.63488 76.27424,0 104.85766,-54.68133 109.36265,-83.03173 H 303.10689 v -66.2545 h 183.38439 c 1.78646,9.86438 3.02922,19.34041 3.02922,32.15635 z"
     id="path1109"
     style="fill:#d29292;fill-opacity:1;stroke-width:0.776723" />
</svg>
