<?xml version="1.0" encoding="UTF-8" standalone="no"?>
<!-- Created with Inkscape (http://www.inkscape.org/) -->

<svg
   width="724.39124"
   height="539.24719"
   viewBox="0 0 724.39124 539.24719"
   version="1.1"
   id="svg5"
   xml:space="preserve"
   inkscape:version="1.2 (dc2aedaf03, 2022-05-15)"
   sodipodi:docname="hffhjkjkk.svg"
   inkscape:export-filename="hffhjkjkk-textorosa.png"
   inkscape:export-xdpi="96"
   inkscape:export-ydpi="96"
   xmlns:inkscape="http://www.inkscape.org/namespaces/inkscape"
   xmlns:sodipodi="http://sodipodi.sourceforge.net/DTD/sodipodi-0.dtd"
   xmlns="http://www.w3.org/2000/svg"
   xmlns:svg="http://www.w3.org/2000/svg"><sodipodi:namedview
     id="namedview7"
     pagecolor="#ffffff"
     bordercolor="#999999"
     borderopacity="1"
     inkscape:showpageshadow="0"
     inkscape:pageopacity="0"
     inkscape:pagecheckerboard="0"
     inkscape:deskcolor="#d1d1d1"
     inkscape:document-units="px"
     showgrid="false"
     inkscape:zoom="0.5054504"
     inkscape:cx="412.50338"
     inkscape:cy="176.08058"
     inkscape:window-width="1920"
     inkscape:window-height="1017"
     inkscape:window-x="-8"
     inkscape:window-y="-8"
     inkscape:window-maximized="1"
     inkscape:current-layer="layer1"
     showguides="false" /><defs
     id="defs2"><inkscape:path-effect
       effect="bspline"
       id="path-effect29065"
       is_visible="true"
       lpeversion="1"
       weight="33.333333"
       steps="2"
       helper_size="0"
       apply_no_weight="true"
       apply_with_weight="true"
       only_selected="false" /></defs><g
     inkscape:label="Layer 1"
     inkscape:groupmode="layer"
     id="layer1"
     transform="translate(-591.80439,-265.37642)"><g
       id="g311"
       transform="translate(97.340413,131.61673)"><path
         id="path29090"
         style="fill:#ffffff;stroke:none;stroke-width:1px;stroke-linecap:butt;stroke-linejoin:miter;stroke-opacity:1"
         d="m 935.27539,246.54688 -8.58008,0.57226 -4.0039,14.87305 0.57226,14.30078 7.43555,8.00781 1.7168,8.58008 3.43164,14.87305 -3.43164,5.14843 1.14257,8.00782 7.4375,10.29687 3.43164,8.58203 -6.86328,7.43555 -6.86523,13.15625 -5.14844,24.02539 -0.57226,10.86914 -12.01172,-1.7168 -6.29297,9.72461 -0.57227,18.30664 5.72071,26.3125 7.43554,6.86524 -0.57226,8.00781 -4.00391,6.86523 v 1.71485 c 0,0 10e-4,6.86523 2.86133,6.86523 h 15.44336 l 5.7207,1.71485 4.57617,2.86133 c 0,0 10.2978,2.85937 12.58594,2.85937 2.28813,0 13.15625,-5.7207 13.15625,-5.7207 l 9.15234,3.43359 22.30857,-1.14453 1.1446,-3.43164 13.7285,-0.57227 10.2968,-1.14453 2.2891,-6.29297 -6.8652,-10.86718 6.8652,-11.44141 8.0078,-28.0293 -2.2871,-18.87695 -1.791,-3.13281 4.0781,-4.30469 20.0215,-20.5918 c 0,0 6.8652,-9.15328 6.8652,-11.4414 0,-2.28814 3.4317,-16.01758 3.4317,-16.01758 l -3.4317,-13.15625 -9.1543,-1.7168 -5.7187,5.14844 -5.1484,11.44141 -10.2969,12.58398 -9.1524,16.58984 -7.6113,5.32618 c -1.3807,-4.22747 -2.7606,-8.33567 -3.2578,-9.33008 -1.1441,-2.28814 -9.1523,-25.74219 -9.1523,-25.74219 l -7.43754,-12.01367 9.72464,-8.00782 4.0058,-11.43945 -5.7207,-8.58203 1.7149,-13.15625 6.8652,-13.15625 4.5762,-7.4375 0.5722,-12.58398 -3.4316,-13.72852 -14.87305,4.00391 -9.15234,6.29297 -17.73438,-4.57618 -18.87695,4.00391 -5.7207,0.57227 z" /><path
         id="path29075"
         style="fill:#ac9393;stroke:none;stroke-width:1px;stroke-linecap:butt;stroke-linejoin:miter;stroke-opacity:1"
         d="m 793.41016,139.00391 c -2.28813,0 -3.43164,1.71679 -3.43164,1.71679 l 8.00781,19.44922 c 0,0 -6.86249,-2.86053 -9.72266,-5.7207 -2.86017,-2.86017 -11.4414,0 -11.4414,0 0,0 3.62872,9.66622 6.79687,16.5918 l -6.22461,4.00195 -6.86523,-2.86133 -11.43946,4.57617 -12.58593,10.86914 c 0,0 -10.86743,29.17478 -11.43946,31.46289 -0.57204,2.28814 -4.00586,24.02539 -4.00586,24.02539 0,0 5.72048,16.01679 5.14844,18.87696 -0.57203,2.86015 5.7207,6.29101 5.7207,6.29101 h 13.15625 l 10.86914,-11.43945 2.86133,9.15234 6.86328,13.15625 9.64063,5.78321 -3.91992,1.08203 -14.87305,24.59765 -9.15234,29.74415 -3.43164,25.74218 -1.14453,5.14844 -11.42774,5.71289 c -3.61559,-2.93314 -6.87695,-5.84635 -6.87695,-6.85742 0,-2.28814 -14.87305,-23.45313 -14.87305,-23.45313 l -5.7207,-22.88086 c 0,0 -5.14844,10.29701 -5.14844,15.44532 0,5.14828 0.57227,26.88476 0.57227,26.88476 l 4.57617,14.30078 -13.15625,-9.15234 1.71484,10.86914 9.15235,15.44531 7.4375,7.43555 13.15624,6.29297 4.08594,0.70312 6.21094,26.18164 5.14844,16.01758 0.57226,10.29688 -4.57617,4.0039 2.28711,10.86914 c 2.86017,0 23.45313,2.85938 23.45313,2.85938 H 776.25 c 2.86017,0 19.44922,1.14453 19.44922,1.14453 l 16.01758,-5.7207 9.72461,4.57617 h 17.16015 l 12.58399,-0.57227 13.1582,-0.57226 17.16016,-2.85938 c 0,0 4.57617,-1.71579 4.57617,-4.0039 0,-2.28814 -6.86328,-13.73047 -6.86328,-13.73047 l 4.57617,-12.01172 6.29101,-23.45313 0.57227,-14.87304 -1.14258,-22.3086 -5.7207,-12.01367 -8.00977,-4.57617 -2.85937,-8.00781 -2.85938,-24.59766 -14.87304,-34.89453 -8.58203,-17.16016 -6.60157,-2.0039 5.45899,-1.42969 14.30078,-16.58789 6.86328,-5.7207 c 0,0 10.87007,8.00827 13.1582,9.15234 2.28814,1.14407 10.86719,-2.28906 10.86719,-2.28906 l 5.7207,-21.16406 -1.71679,-22.88086 -5.71875,-20.02149 -7.4375,-17.16211 -14.30079,-14.87304 h -9.15234 c -2.28813,0 -8.58008,4.00585 -8.58008,4.00585 l -16.58984,-11.4414 -9.21289,-1.58008 -0.51172,-1.85156 -18.30469,-16.01758 c 0,0 -9.15327,-5.7207 -11.4414,-5.7207 z" /><path
         style="color:#000000;fill:#000000;stroke-linecap:round"
         d="m 792.32812,133.76141 c -1.17053,-0.031 -2.9274,0.34997 -4.125,1.6836 -1.64018,1.82652 -1.39106,3.41005 -1.2832,4.59765 0.10787,1.1876 0.38712,2.28364 0.74414,3.45899 0.71404,2.3507 1.7893,4.95319 2.91992,7.47265 0.35781,0.79733 0.39498,0.77353 0.75391,1.53516 -0.95551,-0.24041 -1.72747,-0.49382 -2.70898,-0.70508 -2.86616,-0.61689 -5.63383,-1.11464 -8.29493,-0.93945 -1.33055,0.0876 -2.79724,0.20118 -4.39062,1.55664 -1.59338,1.35545 -2.07312,4.29081 -1.49024,5.98437 1.6198,4.70631 4.10578,9.32976 6.54883,13.33008 l 1.99219,3.26172 3.34961,-1.83984 c 8.94925,-4.91953 19.32139,-7.55887 29.91406,-7.58008 2.85619,0.009 5.70791,0.20714 8.5293,0.59375 l 12.99023,1.7793 -9.78515,-8.72657 c -4.45105,-3.97044 -11.45123,-10.08477 -18.08985,-15.29101 -3.3193,-2.60312 -6.53754,-4.97682 -9.39257,-6.78321 -2.85504,-1.80638 -4.84959,-3.30049 -8.18165,-3.38867 z m 2.5586,5.55664 c -0.012,-0.1327 0.0828,-0.0719 0.041,0.17578 -0.004,-0.0329 -0.0387,-0.15075 -0.041,-0.17578 z m 1.57031,4.75391 c 2.43157,1.55378 5.39364,3.714 8.50781,6.15625 3.20473,2.51326 5.7898,4.86994 8.875,7.50195 -3.50627,0.12379 -6.96522,0.52441 -10.38281,1.14844 l -1.05664,-1.97461 c 0,0 -2.404,-4.49523 -4.51758,-9.20508 -0.58771,-1.30964 -0.95011,-2.40411 -1.42578,-3.62695 z m -12.98242,15.11133 c 1.16132,0.12804 2.01697,0.13047 3.4707,0.44336 3.14137,0.67612 4.48106,1.17907 6.5625,1.82031 -2.53803,0.85941 -5.00339,1.86696 -7.41406,3.01172 -0.97931,-1.75823 -1.82656,-3.48916 -2.61914,-5.27539 z"
         id="path5219" /><path
         id="path2223"
         style="color:#000000;fill:#000000;stroke-width:0.999547;stroke-linecap:round;paint-order:fill markers stroke"
         d="m 768.03711,168.75165 c -2.59693,0.0413 -5.1832,0.75714 -7.60156,1.95508 -3.8694,1.91669 -7.47961,5.03385 -10.87305,9.04297 -6.78688,8.01823 -12.72162,19.6991 -16.59961,33.45898 -3.87798,13.75988 -4.97499,27.03021 -3.47461,37.76953 0.7502,5.36966 2.14019,10.12909 4.36523,14.04687 2.22504,3.91779 5.44291,7.06905 9.52735,8.41016 4.08444,1.34111 8.38451,0.65889 12.25391,-1.25781 3.86939,-1.9167 7.4796,-5.03385 10.87304,-9.04297 2.2537,-2.66259 4.41008,-5.73788 6.43164,-9.15039 a 51.37011,57.841934 6.9993525e-8 0 1 -4.71874,-8.20898 c -2.42841,4.68546 -5.06938,8.74816 -7.76563,11.93359 -2.91091,3.43904 -5.87178,5.86787 -8.46484,7.15234 -2.59307,1.28448 -4.64854,1.4585 -6.43751,0.8711 -1.78898,-0.58741 -3.40536,-1.9663 -4.89648,-4.5918 -1.49111,-2.6255 -2.69828,-6.42317 -3.34179,-11.0293 -1.28704,-9.21225 -0.3615,-21.57612 3.2539,-34.40429 3.6154,-12.82818 9.22505,-23.65317 15.04687,-30.53125 2.91092,-3.43905 5.87178,-5.86983 8.46485,-7.1543 2.59307,-1.28447 4.64852,-1.45654 6.4375,-0.86914 1.51075,0.49605 2.89813,1.5657 4.1914,3.46484 a 51.37011,57.841934 6.9993525e-8 0 1 5.32227,-5.92773 c -1.98266,-2.40852 -4.43802,-4.28874 -7.3418,-5.24219 -1.53167,-0.50292 -3.09418,-0.72009 -4.65234,-0.69531 z" /><path
         id="ellipse2225"
         style="color:#000000;fill:#000000;stroke-width:0.999547;stroke-linecap:round;paint-order:fill markers stroke"
         d="m 861.67188,168.75165 c -1.55817,-0.0248 -3.12068,0.19435 -4.65235,0.69727 -3.53093,1.15936 -6.41017,3.67437 -8.56446,6.86523 A 57.841934,51.37011 90 0 1 853.75,182.779 c 0.17632,-0.36263 0.35923,-0.70819 0.54492,-1.03516 1.49112,-2.62551 3.10751,-4.0044 4.89648,-4.5918 1.78898,-0.5874 3.84444,-0.41338 6.43751,0.8711 2.59306,1.28447 5.55394,3.7133 8.46484,7.15233 5.82183,6.8781 11.43148,17.70309 15.04687,30.53125 3.61541,12.82819 4.54095,25.19205 3.25391,34.40431 -0.64352,4.60611 -1.84873,8.40379 -3.33984,11.02929 -1.49111,2.62549 -3.10947,4.00439 -4.89844,4.59179 -1.78898,0.58741 -3.84443,0.41338 -6.4375,-0.87109 -2.59307,-1.28448 -5.55393,-3.7133 -8.46484,-7.15234 -3.24041,-3.82832 -6.40124,-8.91292 -9.20313,-14.85157 a 57.841934,51.37011 90 0 1 -4.59961,8.81641 c 2.39093,4.34926 4.99857,8.2103 7.75,11.46094 3.39344,4.00911 7.00366,7.12433 10.87305,9.04101 3.86938,1.91671 8.16946,2.60089 12.25391,1.25977 4.08443,-1.34111 7.3023,-4.49433 9.52733,-8.4121 2.22505,-3.91778 3.61505,-8.67528 4.36524,-14.04493 1.50039,-10.73932 0.40338,-24.0077 -3.47461,-37.76758 -3.87798,-13.75988 -9.81273,-25.4427 -16.59961,-33.46093 -3.39343,-4.00912 -7.00365,-7.12628 -10.87304,-9.04298 -2.41837,-1.19793 -5.00463,-1.91378 -7.60156,-1.95507 z" /><path
         id="path213"
         style="color:#000000;fill:#000000;stroke-linecap:round;paint-order:fill markers stroke"
         d="m 783.54449,282.40204 c -5.55862,4.83357 -10.57664,10.91204 -14.91211,17.92578 -10.92532,17.67452 -17.76027,41.54742 -18.6211,68.06836 -7.55185,3.03891 -12.65773,10.92736 -15.37695,20.65625 -3.07079,10.98675 -3.3736,24.8571 -0.43555,39.47265 v 0.002 c 2.28284,11.34727 6.20631,21.49847 11.15235,29.66797 -4.1221,4.28674 -7.00196,9.06525 -7.00196,14.30664 0,3.45355 1.92598,6.60282 4.44141,8.39062 2.51544,1.78781 5.47085,2.66131 8.65234,3.25 6.36302,1.17738 13.86613,1.07227 20.4336,1.07227 3.96828,0 7.74945,-0.58333 11.19531,-1.66406 h -5.24024 l -6.67187,-6.3379 c -6.41845,-8.2e-4 -13.3376,-0.0266 -18.26172,-0.9375 -2.55289,-0.47237 -4.51107,-1.2189 -5.47265,-1.90234 -0.9616,-0.68344 -1.07618,-0.85679 -1.07618,-1.87109 1.88607,-5.67618 7.52305,-8.18764 6.54297,-14.39844 -1.46966,-9.31324 -8.31531,-18.55513 -10.84961,-31.15234 -2.72081,-13.53488 -2.3323,-26.33744 0.29688,-35.74415 2.62914,-9.40667 7.23798,-14.85173 12.36523,-15.93359 l 3.12305,-0.66015 0.0508,-3.19141 c 0.41074,-26.41111 7.17422,-50.08927 17.55859,-66.88867 4.85772,-7.8586 10.43948,-14.1386 16.49024,-18.6211 -3.02777,-0.98732 -5.82591,-2.17177 -8.38086,-3.50976 z m 61.63476,0.51367 c -2.5972,1.28449 -5.42892,2.41432 -8.47851,3.34766 5.85997,4.45138 11.27107,10.59545 15.99804,18.23437 10.39718,16.80201 17.17187,40.49591 17.58203,66.92969 l 0.0488,3.17578 3.10352,0.67187 c 5.11333,1.10561 9.71446,6.56762 12.33203,15.97266 2.61757,9.40505 3.00056,22.18956 0.2832,35.70117 -2.57177,12.78353 -8.58642,22.36751 -11.08594,31.53321 -1.32005,4.8406 6.56483,8.85483 6.7793,14.01953 0,1.0143 -0.11457,1.18765 -1.07617,1.87109 -0.9616,0.68344 -2.91977,1.42997 -5.47266,1.90234 -4.35345,0.8053 -10.26062,0.91524 -16.00976,0.93164 l -1.66602,0.27735 -7.60351,7.22265 c 2.0294,0.33181 4.13682,0.50782 6.30078,0.50782 6.56745,0 14.07059,0.10511 20.43359,-1.07227 3.18151,-0.58869 6.13691,-1.46219 8.65235,-3.25 2.51541,-1.7878 4.4414,-4.93707 4.4414,-8.39062 0,-5.24139 -2.87986,-10.0199 -7.00195,-14.30664 4.94578,-8.16934 8.86765,-18.32112 11.15039,-29.66797 2.93436,-14.59063 2.63818,-28.44299 -0.41797,-39.42383 -2.70729,-9.72742 -7.79059,-17.61894 -15.32422,-20.68555 -0.85863,-26.55003 -7.70464,-50.44674 -18.64648,-68.1289 -4.18063,-6.75599 -9.00101,-12.6326 -14.32227,-17.37305 z"
         sodipodi:nodetypes="cscscccsssscccsscscscccscccccscccscscsccccssssccscscc" /><g
         id="g19287"
         transform="translate(-0.8089434,6.253601)"><path
           style="color:#000000;fill:#000000;stroke-linecap:round"
           d="m 776.1617,359.31055 a 4,4 0 0 0 -3.12304,4.71679 c 0,0 3.70676,18.24517 6.94531,38.19141 1.61927,9.97312 3.119,20.37018 3.97656,29.04687 0.85756,8.6767 0.82219,16.06521 0.29102,18.05079 -1.38778,5.18771 -6.59267,9.11427 -11.01172,12.78515 -2.20953,1.83545 -4.69187,3.3807 -5.28906,7.17578 -0.2986,1.89754 0.4817,4.08171 1.69336,5.47071 1.21165,1.38899 2.70884,2.33495 4.59961,3.27734 7.66516,3.82045 17.48954,4.41917 25.96484,3.1582 4.23765,-0.63048 8.12997,-1.73559 11.33789,-3.48632 3.20792,-1.75074 6.13595,-4.4197 6.57617,-8.36915 0.32187,-2.88767 0.37427,-9.26182 0.41797,-18.27929 0.0437,-9.01748 0.0132,-20.23434 -0.0449,-31.18946 -0.1163,-21.91023 -0.34766,-42.77148 -0.34766,-42.77148 a 4,4 0 0 0 -4.04492,-3.95508 4,4 0 0 0 -3.95508,4.04492 c 0,0 0.23152,20.84404 0.34766,42.72461 0.0581,10.94029 0.0884,22.13939 0.0449,31.10743 -0.0435,8.96803 -0.22615,16.14876 -0.36914,17.43164 -0.0247,0.22111 -0.46425,1.14486 -2.45703,2.23242 -1.99278,1.08756 -5.13277,2.0677 -8.68164,2.5957 -7.09774,1.05601 -15.86959,0.26279 -21.2207,-2.4043 -0.79446,-0.39597 -0.89577,-0.54542 -1.2461,-0.80273 0.40343,-0.47249 0.9203,-1.08821 1.78516,-1.80664 3.94855,-3.28004 11.29776,-8.15893 13.6289,-16.87305 1.32831,-4.96534 0.8271,-11.94303 -0.0586,-20.90429 -0.88568,-8.96127 -2.40622,-19.47427 -4.04102,-29.54297 -3.26958,-20.13742 -7.00195,-38.5 -7.00195,-38.5 a 4,4 0 0 0 -4.7168,-3.125 z"
           id="path1875" /><path
           style="color:#000000;fill:#000000;stroke-linecap:round"
           d="m 853.54647,359.31055 a 4,4 0 0 0 -4.71484,3.125 c 0,0 -3.73237,18.36258 -7.00196,38.5 -1.63479,10.0687 -3.15728,20.5817 -4.04297,29.54297 -0.88568,8.96126 -1.38493,15.93895 -0.0566,20.90429 2.33115,8.71412 9.67841,13.59301 13.62696,16.87305 0.86492,0.71848 1.38368,1.33415 1.78711,1.80664 -0.35029,0.25733 -0.45323,0.40658 -1.24805,0.80273 -5.35111,2.66709 -14.12102,3.46031 -21.21875,2.4043 -3.54887,-0.528 -6.68887,-1.50814 -8.68164,-2.5957 -1.99278,-1.08756 -2.43434,-2.01132 -2.45899,-2.23242 -0.14299,-1.28287 -0.32372,-8.46361 -0.36718,-17.43164 -0.0435,-8.96804 -0.0151,-20.16714 0.043,-31.10743 0.11613,-21.88057 0.34765,-42.72461 0.34765,-42.72461 a 4,4 0 0 0 -3.95508,-4.04492 4,4 0 0 0 -4.04296,3.95508 c 0,0 -0.23332,20.86125 -0.34961,42.77148 -0.0582,10.95512 -0.0867,22.17198 -0.043,31.18946 0.0437,9.01748 0.0941,15.39161 0.41601,18.27929 0.44022,3.94945 3.37021,6.61841 6.57813,8.36915 3.20792,1.75073 7.09828,2.85584 11.33594,3.48632 8.4753,1.26097 18.29968,0.66225 25.96484,-3.1582 1.89077,-0.94239 3.38795,-1.88835 4.59961,-3.27734 1.21166,-1.389 1.99196,-3.57317 1.69336,-5.47071 -0.5972,-3.79508 -3.07954,-5.34033 -5.28906,-7.17578 -4.41906,-3.67088 -9.62198,-7.59744 -11.00977,-12.78515 -0.53117,-1.98558 -0.56655,-9.37409 0.29102,-18.05079 0.85756,-8.67669 2.35728,-19.07375 3.97656,-29.04687 3.23854,-19.94624 6.94531,-38.19141 6.94531,-38.19141 a 4,4 0 0 0 -3.125,-4.71679 z"
           id="path1877" /></g><path
         style="color:#000000;fill:#000000;stroke-linecap:round;paint-order:fill markers stroke"
         d="m 814.04517,157.57782 c -14.63371,0 -28.15939,4.95427 -37.98047,14.58398 -9.82108,9.62972 -15.77149,23.84716 -15.77149,41.59375 0,14.44162 1.12586,28.59856 7.42579,40.46875 -1.62299,2.3602 -2.57227,5.28625 -2.57227,8.47461 0,9.25526 6.45337,17.07909 15.63281,22.34766 9.17945,5.26857 21.41735,8.34961 34.88282,8.34961 13.46546,0 25.70291,-3.08109 34.88281,-8.34961 9.1799,-5.26853 15.63476,-13.09222 15.63476,-22.34766 0,-4.34814 -1.81189,-8.13024 -4.63672,-10.77344 5.2816,-11.39627 6.25391,-24.65361 6.25391,-38.16992 0,-17.74659 -5.95041,-31.96403 -15.77148,-41.59375 -9.82108,-9.62971 -23.34677,-14.58398 -37.98047,-14.58398 z m 0,8 c 12.84358,0 24.19335,4.26887 32.3789,12.29492 8.18555,8.02606 13.37305,19.89712 13.37305,35.88281 0,14.36182 -1.26271,27.5196 -6.80859,37.48242 l -1.9961,3.58399 3.63477,1.9043 c 2.66394,1.39536 3.55273,2.51965 3.55273,5.97265 0,5.48849 -3.95891,11.01409 -11.61523,15.40821 -7.65633,4.39411 -18.67765,7.28906 -30.90234,7.28906 -12.2247,0 -23.24459,-2.89499 -30.9004,-7.28906 -7.6558,-4.39408 -11.61523,-9.91954 -11.61523,-15.40821 0,-2.62369 0.63105,-3.7607 1.98828,-4.92383 l 2.5957,-2.22461 -1.79296,-2.91015 c -6.24711,-10.14348 -7.64453,-23.83761 -7.64454,-38.88477 0,-15.98569 5.1875,-27.85675 13.37305,-35.88281 8.18555,-8.02605 19.53532,-12.29492 32.37891,-12.29492 z"
         id="path2156" /><path
         id="path3013"
         style="color:#000000;fill:#000000;stroke-linejoin:round"
         d="m 715.74414,308.05438 a 4.0004,4.0004 0 0 0 -0.60937,0.0781 4.0004,4.0004 0 0 0 -2.79883,2.19336 c 0,0 -14.70208,30.04942 -6.63477,58.35546 -1.94883,-2.07863 -3.5039,-3.96875 -3.5039,-3.96875 a 4.0004,4.0004 0 0 0 -7.23438,2.56836 c 1.29357,23.28421 15.04994,36.8394 28.06641,43.93946 5.83573,3.1832 11.58944,5.18642 16.17382,6.43359 a 22.651386,32.763615 0 0 1 -1.25195,-8.67187 c -3.18721,-1.02139 -6.93136,-2.51489 -11.08984,-4.78321 -8.87743,-4.84234 -17.61335,-12.4319 -21.65039,-25.06836 2.58007,2.19379 5.49768,4.44662 9.05468,6.57032 a 4.0004,4.0004 0 0 0 5.34571,-5.70118 c -9.98539,-14.51895 -9.02887,-32.72447 -6.15625,-46.4375 0.56738,3.37304 1.23527,6.87654 2.28711,10.53516 4.05787,14.11451 12.73052,29.67014 29.51562,37.99805 a 22.651386,32.763615 0 0 1 6.1875,-5.75 c -16.34965,-6.69589 -24.08937,-20.80228 -28.01562,-34.45899 -4.43054,-15.41071 -3.49414,-29.56445 -3.49414,-29.56445 a 4.0004,4.0004 0 0 0 -4.19141,-4.26758 z" /><path
         id="path11833"
         style="stroke-width:8;stroke-linecap:round;stroke-linejoin:round;paint-order:fill markers stroke"
         d="m 802.71947,234.7899 a 7.6852918,10.921205 0 0 1 -7.68529,10.92121 7.6852918,10.921205 0 0 1 -7.68529,-10.92121 7.6852918,10.921205 0 0 1 7.68529,-10.9212 7.6852918,10.921205 0 0 1 7.68529,10.9212 z" /><path
         id="ellipse11835"
         style="stroke-width:8;stroke-linecap:round;stroke-linejoin:round;paint-order:fill markers stroke"
         d="m 840.74144,234.7899 a 7.6852918,10.921205 0 0 1 -7.68529,10.92121 7.6852918,10.921205 0 0 1 -7.68529,-10.92121 7.6852918,10.921205 0 0 1 7.68529,-10.9212 7.6852918,10.921205 0 0 1 7.68529,10.9212 z" /><path
         id="path11841"
         style="stroke-width:8;stroke-linecap:round;stroke-linejoin:round;paint-order:fill markers stroke"
         d="m 823.7529,252.20538 c 0.60142,4.34324 -4.34629,8.87632 -9.70773,8.87632 -5.36144,0 -9.70774,-5.07863 -9.70774,-8.87632 0,-3.79768 4.34631,-4.87631 9.70774,-4.87631 5.36143,0 9.21103,1.28933 9.70773,4.87631 z"
         sodipodi:nodetypes="asssa" /><path
         style="fill:#ff9955;stroke:none;stroke-width:1px;stroke-linecap:butt;stroke-linejoin:miter;stroke-opacity:1"
         d="m 1012.5,379.25847 c 0,0 -25.74153,9.15254 -27.45763,-5.1483 -1.7161,-14.30085 -17.73305,-22.30932 -18.30509,-26.8856 -0.57203,-4.57627 6.86441,-8.5805 10.29661,-8.5805 3.43221,0 18.87712,-4.00424 18.87712,-4.00424 0,0 24.02539,39.47034 16.58899,44.61864 z"
         id="path29093" /><path
         style="fill:#ff9955;stroke:none;stroke-width:1px;stroke-linecap:butt;stroke-linejoin:miter;stroke-opacity:1"
         d="m 932.98728,285.44491 c 0,0 8.00848,16.01695 20.02119,4.57627 12.01271,-11.44068 3.43221,-16.01694 15.44492,-18.87711 12.01271,-2.86017 11.44067,-16.01695 11.44067,-16.01695 l -17.16101,-2.28814 -20.02119,9.15254 -8.58051,14.30085 z"
         id="path29103"
         sodipodi:nodetypes="cssccccc" /><path
         style="fill:#552200;stroke:none;stroke-width:1px;stroke-linecap:butt;stroke-linejoin:miter;stroke-opacity:1"
         d="m 971.88559,254.55508 c 0,0 -6.29237,18.30509 5.72034,21.16526 12.01271,2.86017 25.16947,3.4322 23.45337,-2.86017 -1.71608,-6.29237 -8.00846,-14.30085 -8.00846,-14.30085 z"
         id="path29105" /><path
         id="path14845"
         style="fill:none;stroke:#000000;stroke-width:8;stroke-linecap:round;stroke-linejoin:round;paint-order:fill markers stroke"
         d="m 970.45548,253.69531 c -20.85107,0 -37.75391,15.87748 -37.75391,35.46485 0,6.63424 1.94551,12.83991 5.32032,18.15039 -4.12711,2.56977 -6.4668,5.67633 -6.4668,9.02343 0,8.84592 16.31173,24.01758 38.90039,24.01758 22.58865,-1e-5 38.90042,-15.17167 38.90042,-24.01758 0,-3.3471 -2.3378,-6.45366 -6.4649,-9.02343 3.3748,-5.31045 5.3203,-11.51621 5.3203,-18.15039 0,-19.58735 -16.90476,-35.46483 -37.75582,-35.46485 z" /><path
         style="fill:#552200;stroke:none;stroke-width:1px;stroke-linecap:butt;stroke-linejoin:miter;stroke-opacity:1"
         d="m 907.24576,436.46186 c 0,0 -1.14407,13.72882 10.29661,5.14831 11.44068,-8.58051 19.44915,-29.74577 24.02542,-22.88136 4.57627,6.86441 0,-29.74576 -20.59322,-24.59746 -20.59322,5.14831 -15.44491,12.58475 -15.44491,12.58475 z"
         id="path29101" /><path
         style="fill:#552200;stroke:none;stroke-width:1px;stroke-linecap:butt;stroke-linejoin:miter;stroke-opacity:1"
         d="m 1004.4915,355.23305 c 0,0 -14.30083,24.59746 -8.00845,30.88983 6.29235,6.29237 15.44495,2.28813 15.44495,2.28813 0,0 4.5762,-1.7161 3.4322,-6.8644 -1.1441,-5.14831 -10.8687,-26.31356 -10.8687,-26.31356 z"
         id="path29097" /><path
         id="path16304"
         style="color:#000000;fill:#000000;stroke-linecap:round;stroke-linejoin:round;paint-order:fill markers stroke"
         d="m 997.95061,332.60938 c -1.03276,2.25204 -2.7746,4.35499 -5.125,6.1875 2.11207,2.26839 4.11918,4.8568 5.99024,7.75976 7.74835,12.02154 12.90375,29.09821 13.36335,48.25 0.069,2.83373 2.9814,4.69909 5.584,3.57617 3.2742,-1.4143 5.7726,-1.43139 7.7207,-0.6289 3.3818,1.44694 6.0057,6.09196 6.4882,13.81445 0.4834,7.73546 -1.3178,17.90107 -5.6718,28.16406 -2.661,6.26773 -6.0804,12.09248 -9.8594,16.85742 -1.4002,1.76635 -1.0653,4.34017 0.7402,5.68946 3.8697,2.89331 5.9102,6.9655 5.9102,8.58789 0,0.74279 -0.071,0.82342 -0.4863,1.22461 -0.4158,0.40119 -1.4067,0.98612 -2.9883,1.4414 -3.1633,0.91058 -8.387,1.25977 -14.2637,1.25977 -2.1766,0 -2.2341,-0.23833 -4.1563,-0.60547 -1.95686,2.37719 -2.43004,6.49525 -5.31836,8.26758 3.96424,1.50795 4.55256,0.33789 9.47466,0.33789 6.1284,0 11.774,-0.21805 16.4785,-1.57227 2.3523,-0.67711 4.5438,-1.64941 6.3281,-3.37109 1.7844,-1.72168 2.9317,-4.32904 2.9317,-6.98242 0,-4.66396 -2.5017,-8.90158 -6.2266,-12.46875 3.3482,-4.71569 6.4,-9.89085 8.7989,-15.54102 4.7759,-11.258 6.8777,-22.42724 6.2929,-31.78711 -0.5848,-9.35987 -3.9933,-17.56391 -11.3633,-20.6914 -0.01,-0.005 -0.021,-0.009 -0.031,-0.0137 -2.7572,-1.14265 -5.7718,-1.29541 -8.8145,-0.78906 -1.2005,-18.3928 -6.2148,-34.95351 -14.207,-47.35351 -2.2901,-3.55308 -4.8356,-6.77578 -7.58989,-9.61328 z m -54.96289,0.0469 c -2.75011,2.84055 -5.29178,6.06642 -7.57813,9.62109 -7.9739,12.39742 -12.97483,28.94244 -14.17187,47.31055 -3.0686,-0.52236 -6.1105,-0.37599 -8.89063,0.77734 -0.01,0.005 -0.0195,0.009 -0.0293,0.0137 -7.36995,3.12751 -10.77849,11.33154 -11.36328,20.6914 -0.5848,9.35987 1.51686,20.52912 6.29296,31.78711 l 0.002,0.006 c 2.34713,5.50728 5.31725,10.56115 8.57031,15.1836 -3.59292,3.52513 -6,7.68114 -6,12.24804 0,2.65339 1.14731,5.26076 2.93164,6.98242 1.78433,1.72169 3.97586,2.69399 6.32813,3.3711 4.70451,1.35422 10.35008,1.57226 16.47851,1.57226 4.69249,0 5.08235,1.24439 8.91797,-0.13086 -2.8627,-1.81796 -3.29793,-5.97989 -5.20508,-8.39648 -1.79905,0.31653 -1.70114,0.52734 -3.71289,0.52734 -5.87668,0 -11.10037,-0.34919 -14.26367,-1.25976 -1.58165,-0.45529 -2.5725,-1.04022 -2.98828,-1.44141 -0.41579,-0.40119 -0.48633,-0.4818 -0.48633,-1.22461 0,-1.59347 1.95067,-5.553 5.69141,-8.42578 1.76423,-1.35541 2.08367,-3.88984 0.71093,-5.64062 -3.67872,-4.69054 -7.00488,-10.38164 -9.61132,-16.4961 l -0.002,-0.006 c -4.35219,-10.261 -6.15313,-20.42421 -5.66992,-28.1582 0.4825,-7.72249 3.10643,-12.3675 6.48828,-13.81445 1.96041,-0.80899 4.47855,-0.78775 7.78125,0.65234 2.60431,1.13516 5.52887,-0.73019 5.59766,-3.57031 0.45437,-19.13438 5.59708,-36.20458 13.33203,-48.23047 1.87113,-2.90914 3.87888,-5.5037 5.99219,-7.77735 -2.35373,-1.82696 -4.10145,-3.92449 -5.14258,-6.17187 z"
         sodipodi:nodetypes="scscccscccscssccssssccssccssssscccscccssssccssssccccscccscss" /><g
         id="g19260"
         transform="translate(-1.8877007)"><path
           style="fill:none;stroke:#000000;stroke-width:8;stroke-linecap:round;stroke-linejoin:miter;stroke-dasharray:none;stroke-opacity:1"
           d="m 942.13983,397.56356 c 0,0 12.58474,64.06779 8.58051,68.64406 0,0 -18.87712,15.44492 -4.00424,17.16102 20.58338,2.375 25.16949,-2.28813 25.16949,-6.86441 v -66.05932"
           id="path19250"
           sodipodi:nodetypes="ccssc" /><path
           style="fill:none;stroke:#000000;stroke-width:8;stroke-linecap:round;stroke-linejoin:miter;stroke-dasharray:none;stroke-opacity:1"
           d="m 1002.7216,397.56356 c 0,0 -12.5847,64.06779 -8.5805,68.64406 0,0 18.8771,15.44492 4.0042,17.16102 -20.5833,2.375 -25.1695,-2.28813 -25.1695,-6.86441 v -66.05932"
           id="path19256"
           sodipodi:nodetypes="ccssc" /></g><path
         id="path19273"
         style="color:#000000;fill:#000000;stroke-linecap:round"
         d="m 924.53516,242.54688 -0.99414,2.54492 c 0,0 -3.80281,9.52164 -4.27344,19.71875 -0.23532,5.09855 0.29337,10.54763 3.13867,15.19726 2.49579,4.07849 6.97726,7.12498 12.95117,8.03516 a 37.182201,26.599577 0 0 1 -2.08398,-8.60352 37.182201,26.599577 0 0 1 0.0156,-0.16797 c -1.92526,-0.76561 -3.14086,-1.93974 -4.05859,-3.43945 -1.55221,-2.53653 -2.16636,-6.45537 -1.97266,-10.65234 0.27978,-6.06177 1.78583,-11.14104 2.77735,-14.1543 1.20194,0.25991 2.58032,0.57807 4.6289,1.38672 3.13725,1.23838 7.12126,3.39845 11.57617,6.91406 a 37.182201,26.599577 0 0 1 8.08985,-3.79492 c -6.28771,-5.5254 -12.10822,-8.73674 -16.72852,-10.56055 -5.96933,-2.3563 -10.33398,-2.42382 -10.33398,-2.42382 z" /><path
         id="path19279"
         style="color:#000000;fill:#000000;stroke-linecap:round"
         d="m 1014.1152,242.54688 c 0,0 -4.3666,0.0675 -10.3359,2.42382 -4.64085,1.83192 -10.49123,5.06401 -16.81055,10.63477 a 37.182201,26.599577 0 0 1 8.00977,3.84765 c 4.52064,-3.59187 8.56298,-5.78758 11.73828,-7.04101 2.0479,-0.80839 3.4271,-1.12677 4.6289,-1.38672 0.9915,3.01313 2.4976,8.09229 2.7773,14.1543 0.1937,4.19697 -0.4184,8.11581 -1.9707,10.65234 -0.9876,1.614 -2.3219,2.85123 -4.5136,3.60742 a 37.182201,26.599577 0 0 1 -2.1153,8.66602 c 6.2216,-0.81388 10.887,-3.90732 13.4512,-8.09766 2.8453,-4.64962 3.3759,-10.09871 3.1406,-15.19726 -0.4706,-10.19711 -4.2734,-19.71875 -4.2734,-19.71875 l -0.9941,-2.54492 z" /><path
         style="color:#000000;fill:#000000;stroke-linecap:round"
         d="m 916.43945,304.50586 a 4,4 0 0 0 -5.00586,2.63476 4,4 0 0 0 2.63477,5.00586 l 16.58984,5.14844 a 4,4 0 0 0 5.00586,-2.63476 4,4 0 0 0 -2.63476,-5.00586 z"
         id="path19315" /><path
         style="color:#000000;fill:#000000;stroke-linecap:round"
         d="m 931.80078,323.38281 -16.58789,5.14844 a 4,4 0 0 0 -2.63477,5.00586 4,4 0 0 0 5.00586,2.63476 l 16.58985,-5.14843 a 4,4 0 0 0 2.63281,-5.00586 4,4 0 0 0 -5.00586,-2.63477 z"
         id="path19317" /><path
         style="color:#000000;fill:#000000;stroke-linecap:round"
         d="m 915.96484,315.76953 a 4,4 0 0 0 -4.13672,3.85938 4,4 0 0 0 3.85938,4.13476 l 16.58984,0.57227 a 4,4 0 0 0 4.13477,-3.85938 4,4 0 0 0 -3.85938,-4.13476 z"
         id="path19319" /><path
         style="color:#000000;fill:#000000;stroke-linecap:round"
         d="m 1024.4707,304.50586 -16.5879,5.14844 a 4,4 0 0 0 -2.6348,5.00586 4,4 0 0 0 5.0059,2.63476 l 16.5879,-5.14844 a 4,4 0 0 0 2.6348,-5.00586 4,4 0 0 0 -5.0059,-2.63476 z"
         id="path19326" /><path
         style="color:#000000;fill:#000000;stroke-linecap:round"
         d="m 1009.1094,323.38281 a 4,4 0 0 0 -5.0059,2.63477 4,4 0 0 0 2.6348,5.00586 l 16.5879,5.14843 a 4,4 0 0 0 5.0058,-2.63476 4,4 0 0 0 -2.6328,-5.00586 z"
         id="path19328" /><path
         style="color:#000000;fill:#000000;stroke-linecap:round"
         d="m 1024.9473,315.76953 -16.5899,0.57227 a 4,4 0 0 0 -3.8594,4.13476 4,4 0 0 0 4.1348,3.85938 l 16.5899,-0.57227 a 4,4 0 0 0 3.8593,-4.13476 4,4 0 0 0 -4.1347,-3.85938 z"
         id="path19330" /><g
         id="g19398"
         transform="translate(1.46164)"><path
           id="path19390"
           style="stroke-width:8.00001;stroke-linecap:round;stroke-linejoin:round;paint-order:fill markers stroke"
           d="m 958.24709,297.5627 c 2.135,3.69792 2.75623,9.64566 0.15399,11.14807 -2.60224,1.5024 -7.44252,-2.00947 -9.57752,-5.70739 -2.13499,-3.69791 -2.75621,-9.64566 -0.15398,-11.14806 2.60224,-1.5024 7.44252,2.00947 9.57751,5.70738 z"
           sodipodi:nodetypes="sssss" /><path
           id="path19392"
           style="stroke-width:8.00001;stroke-linecap:round;stroke-linejoin:round;paint-order:fill markers stroke"
           d="m 989.16415,303.00338 c -2.135,3.69792 -6.97528,7.20979 -9.57752,5.70739 -2.60224,-1.50241 -1.98101,-7.45015 0.15399,-11.14807 2.13499,-3.69791 6.97527,-7.20978 9.57751,-5.70738 2.60223,1.5024 1.98101,7.45015 -0.15398,11.14806 z"
           sodipodi:nodetypes="sssss" /></g><path
         id="path19394"
         style="stroke-width:8.00001;stroke-linecap:round;stroke-linejoin:round;paint-order:fill markers stroke"
         d="m 977.8663,312.61205 c 0.42576,3.07473 -3.07689,6.28385 -6.87244,6.28385 -3.79555,0 -6.87244,-3.59533 -6.87244,-6.28385 0,-2.68851 3.0769,-3.45211 6.87244,-3.45211 3.79554,0 6.5208,0.91277 6.87244,3.45211 z"
         sodipodi:nodetypes="asssa" /><path
         style="fill:#ff9955;stroke:none;stroke-width:1px;stroke-linecap:butt;stroke-linejoin:miter;stroke-opacity:1"
         d="m 1036.5254,357.52118 c -0.3402,0.40826 3.1864,1.21024 19.4491,-9.15254 5.3936,-3.43687 6.8645,9.72458 6.8645,9.72458 0,0 2.8601,-9.15254 2.8601,-11.44068 0,-2.28814 -4.0042,-13.72881 -4.0042,-13.72881 l -10.2966,-0.57204 -10.8686,16.01695 z"
         id="path29107"
         sodipodi:nodetypes="cscscccc" /><path
         id="path25255"
         style="color:#000000;fill:#000000;stroke-linecap:round"
         d="m 1055.9219,327.06445 c -1.0365,0.0528 -2.0778,0.2535 -3.0918,0.61914 -4.0563,1.46257 -7.4945,4.93807 -10.5059,10.2461 -7.7761,13.7067 -6.4762,14.97452 -29.2617,44.80469 l 1.6563,10.93554 c 27.6288,-35.80072 26.6348,-37.81558 34.5644,-51.79297 2.4311,-4.28518 4.8174,-6.1479 6.2598,-6.66797 1.4423,-0.52006 2.1349,-0.32605 3.3359,0.78321 2.402,2.21852 4.7791,9.61049 2.2656,18.5664 -2.2411,7.98568 -12.9934,21.59831 -23.332,32.72657 -2.62,2.8201 -5.1988,5.50287 -7.6113,7.97851 0.01,0.004 0.023,0.008 0.031,0.0117 1.3296,0.66476 2.6448,4.5919 3.5254,7.7832 3.052,-3.106 6.3602,-6.50071 9.916,-10.32812 10.5713,-11.37867 21.9328,-24.46311 25.1739,-36.01172 3.1163,-11.10429 1.3391,-21.17248 -4.5411,-26.60352 -2.205,-2.03662 -5.2754,-3.20906 -8.3847,-3.05078 z" /></g><g
       id="g634"
       transform="translate(8,-10)"
       style="fill:#c28b8b;fill-opacity:1"><path
         d="m 626.94133,791.63446 q -11.36542,0 -19.63118,-3.61627 -8.26576,-3.61627 -13.43186,-9.29898 -5.1661,-5.68271 -7.74915,-12.91525 -2.32475,-7.23254 -2.32475,-14.20677 0,-4.9078 1.29153,-10.0739 1.54983,-5.4244 3.87457,-9.55728 2.32475,-4.39119 5.42441,-6.97424 3.35796,-2.84135 6.97423,-2.84135 3.09966,0 3.87458,1.80813 0.51661,2.06644 1.54983,5.1661 1.29152,3.09966 3.87457,5.94102 2.58305,2.84135 6.97424,4.90779 4.64949,2.06644 11.88203,2.06644 8.52406,0 16.78982,-5.94101 8.26576,-5.94102 16.27322,-15.75661 8.00745,-9.81559 16.01491,-22.21423 8.26576,-12.39864 16.27321,-25.05558 8.00746,-12.91525 16.01491,-25.05559 8.26576,-12.14033 16.53152,-21.181 -10.3322,1.29152 -22.21423,4.39118 -11.62372,3.09966 -21.43931,7.74915 -9.55729,4.64949 -15.75661,10.5905 -5.94101,5.94102 -4.90779,12.39864 0.77491,5.1661 2.84135,6.71593 2.06644,1.29153 4.64949,3.35797 0.77492,0.51661 1.29153,2.06644 0.51661,1.54983 -0.25831,2.84135 -2.84135,5.94102 -9.55728,8.26576 -6.45763,2.32475 -12.39864,2.32475 -11.36542,0 -19.11457,-6.71593 -7.74915,-6.97424 -9.04068,-17.04813 -1.29152,-10.0739 3.61627,-18.85627 5.1661,-8.78237 14.46508,-15.7566 9.55729,-6.97423 22.47254,-11.62372 13.17355,-4.9078 27.89694,-6.97424 7.49084,-1.29152 14.98169,-1.54983 7.74915,-0.51661 14.72338,-0.51661 16.27322,0 27.63864,2.32475 5.4244,-2.32475 10.5905,-2.32475 4.39118,0 6.45762,2.58305 2.06644,2.32475 2.06644,5.42441 0,3.87457 -2.84135,7.49084 -2.58305,3.35797 -6.97424,3.35797 -5.16609,0 -10.5905,7.23254 -5.1661,6.97423 -11.10711,18.59795 -5.94102,11.36542 -12.65695,26.08881 -6.45762,14.72338 -13.94847,30.22168 -7.49084,15.4983 -16.27321,30.22169 -8.52407,14.72338 -18.59796,26.34711 -10.0739,11.36542 -21.69762,18.33965 -11.36542,7.23254 -24.79728,7.23254 z"
         id="path585"
         style="font-size:258.305px;font-family:Bayland;-inkscape-font-specification:Bayland;text-align:center;letter-spacing:0px;word-spacing:0px;text-anchor:middle;stroke-width:0.999996;fill:#c28b8b;fill-opacity:1" /><path
         d="m 736.20458,776.65277 q -1.80813,0.25831 -3.35796,0.25831 -1.54983,0 -3.09966,0 -9.55729,0 -14.72339,-3.09966 -5.4244,-3.09966 -4.39118,-9.81559 2.06644,-14.20678 7.49084,-28.93016 5.1661,-14.72339 11.10712,-26.60542 6.19932,-12.14033 11.62372,-19.63118 5.42441,-7.74915 7.49085,-7.74915 1.80813,0 5.4244,0.77492 3.87458,0.51661 7.49085,2.32474 3.61627,1.54983 6.19932,4.39119 2.84135,2.84135 2.84135,7.49084 0,2.06644 -2.84135,8.52407 3.87457,-4.13288 8.26576,-8.26576 4.64949,-4.39119 9.81559,-7.74915 5.1661,-3.35797 10.84881,-5.42441 5.68271,-2.06644 11.88203,-2.06644 9.81559,0 13.43186,3.61627 3.87457,3.61627 3.61627,9.29898 0,5.42441 -2.84136,12.39864 -2.84135,6.71593 -6.45762,13.43186 -3.35797,6.45763 -6.45763,12.14034 -2.84135,5.68271 -3.09966,8.78237 0,4.64949 4.64949,4.64949 3.09966,0 6.19932,-2.84136 3.35797,-2.84135 6.19932,-6.19932 2.84136,-3.35796 4.64949,-6.19932 1.80814,-3.09966 1.80814,-3.09966 l 9.55728,3.61627 q -1.80813,5.1661 -6.45762,12.91525 -4.64949,7.74915 -11.36542,15.24 -6.45763,7.23254 -14.72339,12.65694 -8.26576,5.1661 -17.56474,5.1661 -8.78237,0 -14.72338,-4.39118 -5.68271,-4.64949 -5.94102,-12.91525 -0.2583,-5.42441 1.80814,-12.14034 2.32474,-6.97423 5.68271,-13.94847 3.35796,-7.23254 7.23254,-13.69016 3.87457,-6.71593 6.71593,-11.88203 2.84135,-5.1661 4.13288,-8.26576 1.54983,-3.09966 0,-3.09966 -4.39119,0 -11.36542,6.97423 -6.71593,6.97424 -14.20678,17.30644 -7.49084,10.3322 -14.98169,22.21423 -7.23254,11.62372 -12.65694,21.18101 -1.29153,3.61627 -2.58305,6.71593 -1.29153,3.09966 -2.32475,5.94101 z"
         id="path587"
         style="font-size:258.305px;font-family:Bayland;-inkscape-font-specification:Bayland;text-align:center;letter-spacing:0px;word-spacing:0px;text-anchor:middle;stroke-width:0.999996;fill:#c28b8b;fill-opacity:1" /><path
         d="m 847.0173,785.69345 q -9.29898,0 -16.01491,-2.84136 -6.45762,-2.84135 -10.5905,-7.49084 -4.39119,-4.64949 -6.45763,-10.3322 -2.06644,-5.94102 -2.06644,-12.14034 0,-5.4244 1.54983,-10.5905 1.54983,-5.42441 4.39119,-9.81559 2.84135,-4.39119 6.97423,-7.49085 4.13288,-3.09966 9.29898,-4.13288 2.32475,-3.35796 5.42441,-7.49084 3.09965,-4.39119 6.19931,-9.04068 3.35797,-4.64949 6.45763,-9.29898 3.35796,-4.64949 6.19932,-8.52406 1.03322,-7.49085 4.90779,-13.17356 3.87458,-5.94101 11.88203,-5.94101 3.61627,0 5.94102,1.80813 2.32474,1.54983 3.35796,3.87458 1.03322,2.06644 0.51661,4.39118 -0.51661,2.32475 -2.84135,3.87458 -1.54983,7.23254 -0.51661,14.46508 1.29152,6.97423 3.35796,14.20677 2.06644,7.23254 3.87458,14.72339 2.06644,7.23254 2.06644,14.72338 0,10.3322 -3.87458,18.85627 -3.87457,8.52406 -10.3322,14.72338 -6.19932,5.94102 -14.20677,9.29898 -7.74915,3.35797 -15.4983,3.35797 z m -10.07389,-50.62778 q 0.51661,5.1661 3.61627,8.00745 3.35796,2.58305 7.49084,2.58305 5.1661,0 9.55728,-4.64949 4.39119,-4.64949 4.39119,-14.98169 0,-4.39118 -1.54983,-10.3322 -1.29153,-6.19932 -2.06644,-13.69016 -6.19932,9.04067 -12.39864,18.59796 -5.94101,9.29898 -9.04067,14.46508 z"
         id="path589"
         style="font-size:258.305px;font-family:Bayland;-inkscape-font-specification:Bayland;text-align:center;letter-spacing:0px;word-spacing:0px;text-anchor:middle;stroke-width:0.999996;fill:#c28b8b;fill-opacity:1" /><path
         d="m 904.24314,776.65277 q -9.04067,0 -13.69016,-5.94101 -4.9078,-5.94102 -4.9078,-15.24 0,-5.68271 2.06644,-13.94847 2.06644,-8.52406 5.42441,-18.08135 3.61627,-9.55728 8.00745,-19.63118 4.39118,-10.07389 9.04067,-19.11457 h -14.46507 q -1.29153,-3.09966 -1.29153,-5.94101 0,-2.32475 1.03322,-4.13288 1.29153,-2.06644 4.90779,-2.06644 h 16.27322 q 5.4244,-9.81559 9.81559,-16.01491 4.64949,-6.19932 6.71593,-6.19932 1.80813,0 5.4244,0.51661 3.61627,0.2583 7.23254,1.80813 3.87458,1.54983 6.45763,4.39119 2.84135,2.84135 2.84135,7.74915 0,1.80813 -2.58305,7.74915 h 11.10712 q 0.77491,3.35796 0.2583,6.19932 -0.51661,2.32474 -1.80813,4.13288 -1.29153,1.80813 -4.9078,1.80813 h -10.3322 q -4.39118,9.04068 -9.81559,19.88949 -5.1661,10.5905 -8.78237,19.63118 -3.61627,9.04067 -4.64949,15.23999 -1.03322,5.94102 3.09966,5.94102 3.09966,0 6.45763,-2.84136 3.61627,-2.84135 6.45762,-6.19932 2.84136,-3.35796 4.64949,-6.19932 1.80814,-3.09966 1.80814,-3.09966 l 9.55728,3.35797 q -2.84135,6.19932 -7.23254,14.20677 -4.13288,7.74915 -10.3322,14.98169 -6.19932,7.23254 -14.72338,12.14034 -8.26576,4.90779 -19.11457,4.90779 z"
         id="path591"
         style="font-size:258.305px;font-family:Bayland;-inkscape-font-specification:Bayland;text-align:center;letter-spacing:0px;word-spacing:0px;text-anchor:middle;stroke-width:0.999996;fill:#c28b8b;fill-opacity:1" /><path
         d="m 939.88919,752.63041 q 0,-10.84881 4.39118,-23.24745 4.39119,-12.39864 12.65695,-22.98915 8.26576,-10.84881 19.63118,-17.82304 11.6237,-7.23254 26.0888,-7.23254 7.4908,0 12.3986,3.35796 5.1661,3.35797 8.0075,6.97424 3.0997,-4.9078 5.4244,-7.49085 2.5831,-2.84135 3.8746,-2.84135 1.8081,0 5.4244,0.51661 3.6163,0.51661 7.2325,2.32474 3.8746,1.54983 6.4576,4.39119 2.8414,2.84135 2.8414,7.49084 0,2.06644 -2.0664,6.71593 -2.0665,4.39119 -4.9078,10.0739 -2.5831,5.4244 -5.4244,11.36542 -2.5831,5.68271 -4.1329,10.3322 -1.2915,4.64949 -0.7749,7.74915 0.5166,3.09966 4.3912,3.09966 3.0996,0 6.4576,-2.84136 3.6162,-2.84135 6.4576,-6.19932 2.8414,-3.35796 4.6495,-6.19932 1.8081,-3.09966 1.8081,-3.09966 l 9.5573,3.61627 q -2.8413,5.94102 -7.2325,13.94847 -4.1329,8.00746 -10.3322,15.24 -6.1993,6.97423 -14.4651,11.88203 -8.2658,4.90779 -19.1146,4.90779 -11.3654,0 -16.0149,-5.94101 -4.3912,-6.19932 -4.3912,-15.4983 0,-2.84136 0.2583,-5.68271 0.5166,-2.84136 1.0333,-5.94102 -4.6495,6.45763 -9.8156,12.39864 -5.16614,5.94102 -10.59054,10.59051 -5.1661,4.64949 -10.59051,7.49084 -5.1661,2.58305 -10.07389,2.58305 -9.81559,0 -14.46508,-6.45762 -4.64949,-6.71593 -4.64949,-17.56474 z m 68.19251,-56.31049 q -4.1329,0 -9.8156,4.39118 -5.6827,4.13288 -11.1071,10.59051 -5.1661,6.45762 -8.78237,14.20677 -3.61627,7.49085 -3.61627,13.94847 0,5.94102 3.35797,5.94102 2.32474,0 5.68271,-2.84136 3.61627,-2.84135 7.49086,-7.23254 4.1329,-4.39118 8.0074,-9.55728 4.1329,-5.42441 7.4909,-10.0739 3.6163,-4.90779 5.941,-8.26576 2.3247,-3.61627 3.0997,-4.39118 -1.2916,-6.71593 -7.7492,-6.71593 z"
         id="path593"
         style="font-size:258.305px;font-family:Bayland;-inkscape-font-specification:Bayland;text-align:center;letter-spacing:0px;word-spacing:0px;text-anchor:middle;stroke-width:0.999996;fill:#c28b8b;fill-opacity:1" /><path
         d="m 1054.0601,814.3653 q -1.8082,0.2583 -3.358,0.2583 -1.8081,0 -3.358,0 -10.0738,0 -16.0149,-3.35796 -6.1993,-3.35796 -4.3911,-9.55728 3.3579,-11.36542 9.0406,-24.53898 5.4244,-13.17355 11.8821,-26.34711 6.1993,-13.43186 12.9152,-25.57219 6.7159,-12.39864 12.3986,-21.95593 5.9411,-9.55728 10.3322,-15.23999 4.6495,-5.68271 6.4577,-5.68271 1.8081,0 5.4244,0.51661 3.8746,0.51661 7.4908,2.06644 3.6163,1.54983 6.1993,4.64949 2.8414,2.84135 2.8414,7.49084 0,2.58305 -1.8081,6.45763 8.2657,-9.29898 16.7898,-15.75661 8.7824,-6.45762 17.0481,-6.45762 4.9078,0 8.2658,2.32474 3.6162,2.06644 5.6827,5.42441 2.3247,3.35796 3.358,6.97423 1.0332,3.61627 1.0332,6.71593 0.2583,5.94102 -1.2916,13.94847 -1.5498,7.74915 -4.9077,16.01491 -3.0997,8.00746 -8.0075,16.01491 -4.6495,7.74915 -11.3654,13.94847 -6.4576,6.19932 -14.7234,10.0739 -8.0075,3.61627 -17.5647,3.61627 -8.0075,0 -13.6902,-4.39119 -5.6827,-4.64949 -9.299,-9.55728 -4.6495,8.52406 -9.0407,16.53152 -4.3912,8.26576 -8.0074,15.23999 -3.6163,6.97424 -6.1993,12.14034 -2.8414,5.4244 -4.1329,8.00745 z m 39.7789,-75.94167 q -0.5166,0.77492 -0.7749,1.54983 -0.2583,0.51661 -0.5166,1.29153 0.5166,0.77491 1.8082,2.58305 1.5498,1.54983 4.6494,1.54983 5.4245,0 10.5906,-3.09966 5.4244,-3.09966 10.0738,-7.74915 4.9078,-4.9078 8.5241,-10.59051 3.6163,-5.94101 5.6827,-11.36542 2.3248,-5.4244 2.5831,-9.81559 0.2583,-4.39118 -1.8082,-6.45762 -4.6495,0 -10.5905,5.1661 -5.6827,4.90779 -11.6237,11.88203 -5.6827,6.71593 -10.8488,13.94847 -4.9078,6.97423 -7.7492,11.10711 z"
         id="path595"
         style="font-size:258.305px;font-family:Bayland;-inkscape-font-specification:Bayland;text-align:center;letter-spacing:0px;word-spacing:0px;text-anchor:middle;stroke-width:0.999996;fill:#c28b8b;fill-opacity:1" /><path
         d="m 1211.8993,681.33823 q 9.8156,0 14.7234,6.19932 5.1661,6.19932 5.1661,14.72338 0,6.71593 -3.6163,12.91525 -3.6162,5.94102 -9.299,10.59051 -5.4244,4.39118 -12.1403,6.97423 -6.7159,2.58305 -12.9152,2.58305 -4.1329,0 -6.9743,-1.03322 1.2916,7.49085 5.941,10.84881 4.6495,3.35797 10.8489,3.35797 4.3911,0 9.2989,-1.54983 4.9078,-1.54983 9.5573,-4.39119 4.6495,-3.09966 8.5241,-6.97423 3.8746,-3.87458 6.1993,-8.52407 l 9.5573,3.61627 q -6.7159,12.91525 -15.4983,22.98915 -7.4909,8.78237 -18.8563,16.01491 -11.1071,6.97423 -25.8305,6.97423 -9.299,0 -16.0149,-2.32474 -6.7159,-2.58305 -11.1071,-6.71593 -4.1329,-4.39119 -5.941,-9.81559 -2.0665,-5.68271 -2.0665,-12.14034 0,-10.3322 4.6495,-21.69762 4.6495,-11.36542 12.657,-20.9227 8.2657,-9.55729 19.3729,-15.4983 11.1071,-6.19932 23.764,-6.19932 z m 3.6163,19.11457 q 0,-4.9078 -3.8746,-4.9078 -2.583,0 -6.1993,2.06644 -3.358,2.06644 -6.9742,5.68271 -3.6163,3.61627 -6.716,8.52407 -2.8413,4.90779 -4.1329,10.84881 0.5167,0.2583 2.0665,0.2583 3.3579,0 7.7491,-2.32474 4.3912,-2.32475 8.2658,-5.68271 3.8746,-3.35797 6.7159,-7.23254 2.8414,-4.13288 3.0997,-7.23254 z"
         id="path597"
         style="font-size:258.305px;font-family:Bayland;-inkscape-font-specification:Bayland;text-align:center;letter-spacing:0px;word-spacing:0px;text-anchor:middle;stroke-width:0.999996;fill:#c28b8b;fill-opacity:1" /><path
         d="m 1248.3206,776.65277 q -9.0407,0 -13.6902,-5.94101 -4.9078,-5.94102 -4.9078,-15.24 0,-5.68271 2.0664,-13.94847 2.0665,-8.52406 5.4244,-18.08135 3.6163,-9.55728 8.0075,-19.63118 4.3912,-10.07389 9.0407,-19.11457 h -14.4651 q -1.2915,-3.09966 -1.2915,-5.94101 0,-2.32475 1.0332,-4.13288 1.2915,-2.06644 4.9078,-2.06644 h 16.2732 q 5.4244,-9.81559 9.8156,-16.01491 4.6495,-6.19932 6.7159,-6.19932 1.8082,0 5.4244,0.51661 3.6163,0.2583 7.2326,1.80813 3.8745,1.54983 6.4576,4.39119 2.8413,2.84135 2.8413,7.74915 0,1.80813 -2.583,7.74915 h 11.1071 q 0.7749,3.35796 0.2583,6.19932 -0.5166,2.32474 -1.8081,4.13288 -1.2915,1.80813 -4.9078,1.80813 h -10.3322 q -4.3912,9.04068 -9.8156,19.88949 -5.1661,10.5905 -8.7824,19.63118 -3.6162,9.04067 -4.6495,15.23999 -1.0332,5.94102 3.0997,5.94102 3.0997,0 6.4576,-2.84136 3.6163,-2.84135 6.4576,-6.19932 2.8414,-3.35796 4.6495,-6.19932 1.8082,-3.09966 1.8082,-3.09966 l 9.5573,3.35797 q -2.8414,6.19932 -7.2326,14.20677 -4.1329,7.74915 -10.3322,14.98169 -6.1993,7.23254 -14.7234,12.14034 -8.2657,4.90779 -19.1145,4.90779 z"
         id="path599"
         style="font-size:258.305px;font-family:Bayland;-inkscape-font-specification:Bayland;text-align:center;letter-spacing:0px;word-spacing:0px;text-anchor:middle;stroke-width:0.999996;fill:#c28b8b;fill-opacity:1" /></g></g></svg>
