<?xml version="1.0" encoding="UTF-8" standalone="no"?>
<svg
   viewBox="0 0 512 448"
   version="1.1"
   id="svg1"
   sodipodi:docname="right-to-bracket.svg"
   inkscape:version="1.3 (1:1.3+202307231459+0e150ed6c4)"
   width="512"
   height="448"
   xmlns:inkscape="http://www.inkscape.org/namespaces/inkscape"
   xmlns:sodipodi="http://sodipodi.sourceforge.net/DTD/sodipodi-0.dtd"
   xmlns="http://www.w3.org/2000/svg"
   xmlns:svg="http://www.w3.org/2000/svg">
  <defs
     id="defs1" />
  <sodipodi:namedview
     id="namedview1"
     pagecolor="#ffffff"
     bordercolor="#000000"
     borderopacity="0.25"
     inkscape:showpageshadow="2"
     inkscape:pageopacity="0.0"
     inkscape:pagecheckerboard="0"
     inkscape:deskcolor="#d1d1d1"
     inkscape:zoom="1.5117188"
     inkscape:cx="255.99999"
     inkscape:cy="224.24805"
     inkscape:window-width="1850"
     inkscape:window-height="1016"
     inkscape:window-x="0"
     inkscape:window-y="0"
     inkscape:window-maximized="1"
     inkscape:current-layer="svg1" />
  <!--! Font Awesome Free 6.2.0 by @fontawesome - https://fontawesome.com License - https://fontawesome.com/license/free (Icons: CC BY 4.0, Fonts: SIL OFL 1.1, Code: MIT License) Copyright 2022 Fonticons, Inc. -->
  <path
     d="m 352,64 h 64 c 17.7,0 32,14.3 32,32 v 256 c 0,17.7 -14.3,32 -32,32 h -64 c -17.7,0 -32,14.3 -32,32 0,17.7 14.3,32 32,32 h 64 c 53,0 96,-43 96,-96 V 96 C 512,43 469,0 416,0 h -64 c -17.7,0 -32,14.3 -32,32 0,17.7 14.3,32 32,32 z m -7.5,177.4 c 4.8,-4.5 7.5,-10.8 7.5,-17.4 0,-6.6 -2.7,-12.9 -7.5,-17.4 l -144,-136 C 193.5,64 183.3,62.2 174.5,66 165.7,69.8 160,78.5 160,88 v 72 H 32 C 14.3,160 0,174.3 0,192 v 64 c 0,17.7 14.3,32 32,32 h 128 v 72 c 0,9.6 5.7,18.2 14.5,22 8.8,3.8 19,2 26,-4.6 z"
     id="path1"
     style="fill:#c28b8b;fill-opacity:1" />
</svg>
